<?xml version="1.0" standalone="no"?>
<!DOCTYPE svg PUBLIC "-//W3C//DTD SVG 20010904//EN"
 "http://www.w3.org/TR/2001/REC-SVG-20010904/DTD/svg10.dtd">
<svg version="1.0" xmlns="http://www.w3.org/2000/svg"
 width="505.000000pt" height="505.000000pt" viewBox="0 0 505.000000 505.000000"
 preserveAspectRatio="xMidYMid meet">
<metadata>
Created by potrace 1.14, written by Peter Selinger 2001-2017
</metadata>
<g transform="translate(0.000000,505.000000) scale(0.100000,-0.100000)"
fill="#000000" stroke="none">
<path d="M2465 4655 c-27 -12 -104 -46 -170 -75 -66 -29 -133 -58 -150 -65
-16 -7 -55 -25 -85 -38 -30 -14 -98 -44 -150 -67 -110 -48 -131 -58 -223 -99
-38 -17 -70 -31 -72 -31 -3 0 -30 -12 -62 -26 -65 -30 -117 -53 -183 -82 -148
-65 -560 -245 -585 -257 -16 -7 -93 -41 -170 -75 -77 -33 -153 -67 -170 -74
-72 -32 -196 -87 -270 -119 -44 -19 -101 -45 -128 -57 l-47 -22 2 -891 3 -891
105 -59 c58 -32 134 -75 170 -94 36 -20 96 -53 133 -74 38 -22 70 -39 72 -39
1 0 47 -25 101 -56 55 -31 133 -74 174 -97 41 -22 104 -57 140 -77 36 -21 92
-52 125 -70 76 -41 150 -82 245 -135 75 -42 138 -77 240 -133 30 -16 134 -74
230 -127 96 -53 198 -110 225 -125 28 -15 133 -73 235 -130 102 -56 214 -118
250 -138 36 -19 70 -39 77 -44 11 -9 33 1 158 72 22 12 58 32 80 43 22 11 47
26 55 32 8 7 44 28 80 47 36 19 142 78 235 130 94 53 193 109 221 124 28 16
130 74 228 129 98 55 194 109 214 121 20 11 60 33 87 48 28 16 124 70 215 121
91 51 215 121 275 155 61 34 148 84 195 110 47 26 105 59 130 73 25 14 113 63
195 109 l150 85 1 890 1 891 -71 32 c-39 18 -84 38 -101 45 -16 7 -55 24 -85
38 -30 14 -89 39 -130 57 -41 18 -93 40 -115 50 -97 44 -397 175 -465 205 -41
18 -96 42 -122 54 -60 26 -13 6 -784 345 -358 157 -653 286 -655 285 -2 0 -26
-11 -54 -24z"/>
</g>
</svg>
